<svg xmlns="http://www.w3.org/2000/svg" width="512" height="512" viewBox="0 0 512 512">
  <defs>
    <linearGradient id="bg" x1="0" y1="0" x2="1" y2="1">
      <stop offset="0%" stop-color="#8bd3ff"/>
      <stop offset="100%" stop-color="#b8f7d4"/>
    </linearGradient>
    <radialGradient id="glow" cx="28%" cy="22%" r="72%">
      <stop offset="0%" stop-color="#ffffff" stop-opacity=".56"/>
      <stop offset="58%" stop-color="#ffffff" stop-opacity=".08"/>
      <stop offset="100%" stop-color="#000000" stop-opacity=".18"/>
    </radialGradient>
  </defs>
  <rect width="512" height="512" rx="148" fill="url(#bg)"/>
  <rect width="512" height="512" rx="148" fill="url(#glow)"/>
  <circle cx="256" cy="212" r="104" fill="#202033" opacity=".96"/>
  <path d="M154 242c24-92 73-134 130-119 45 12 78 54 82 124-45-34-92-47-135-38-30 6-55 17-77 33z" fill="#202033"/>
  <circle cx="256" cy="238" r="78" fill="#f3c7a6"/>
  <path d="M174 430c17-78 53-120 82-120s65 42 82 120H174z" fill="#eaf7ff" opacity=".96"/>
  <circle cx="228" cy="242" r="8" fill="#1f2937" opacity=".78"/>
  <circle cx="285" cy="242" r="8" fill="#1f2937" opacity=".78"/>
  <path d="M238 282c12 5 25 5 38 0" fill="none" stroke="#8b4a4a" stroke-width="8" stroke-linecap="round" opacity=".56"/>
</svg>