<svg xmlns="http://www.w3.org/2000/svg" width="512" height="512" viewBox="0 0 512 512">
  <defs>
    <linearGradient id="bg" x1="0" y1="0" x2="1" y2="1">
      <stop offset="0%" stop-color="#7aa2ff"/>
      <stop offset="100%" stop-color="#91f0d1"/>
    </linearGradient>
    <radialGradient id="glow" cx="28%" cy="22%" r="70%">
      <stop offset="0%" stop-color="#ffffff" stop-opacity=".55"/>
      <stop offset="62%" stop-color="#ffffff" stop-opacity=".08"/>
      <stop offset="100%" stop-color="#000000" stop-opacity=".16"/>
    </radialGradient>
    <filter id="shadow" x="-20%" y="-20%" width="140%" height="140%">
      <feDropShadow dx="0" dy="18" stdDeviation="20" flood-color="#000000" flood-opacity=".25"/>
    </filter>
  </defs>
  <rect width="512" height="512" rx="148" fill="url(#bg)"/>
  <rect width="512" height="512" rx="148" fill="url(#glow)"/>
  <circle cx="256" cy="216" r="108" fill="#111827" opacity=".96" filter="url(#shadow)"/>
  <path d="M151 252c8-96 50-151 113-151 64 0 105 55 112 151-31-35-70-54-112-54-43 0-82 19-113 54z" fill="#111827"/>
  <circle cx="256" cy="236" r="78" fill="#f4c9a6"/>
  <path d="M177 428c16-74 50-116 79-116s63 42 79 116H177z" fill="#e7f0ff" opacity=".96"/>
  <path d="M193 184c34-39 89-57 143-28 13 7 25 17 34 30-7-66-55-105-114-105-60 0-108 41-115 108 12-10 30-8 52-5z" fill="#111827"/>
  <circle cx="228" cy="242" r="8" fill="#1f2937" opacity=".78"/>
  <circle cx="285" cy="242" r="8" fill="#1f2937" opacity=".78"/>
  <path d="M230 279c18 15 38 15 56 0" fill="none" stroke="#8b4a4a" stroke-width="8" stroke-linecap="round" opacity=".55"/>
  <circle cx="392" cy="392" r="68" fill="#111827" opacity=".74"/>
  <text x="392" y="416" text-anchor="middle" font-size="58" font-family="system-ui, -apple-system, BlinkMacSystemFont, 'Noto Sans JP', sans-serif" font-weight="900" fill="#fff">蓮</text>
</svg>