<svg xmlns="http://www.w3.org/2000/svg" width="512" height="512" viewBox="0 0 512 512">
  <defs>
    <linearGradient id="bg" x1="0" y1="0" x2="1" y2="1">
      <stop offset="0%" stop-color="#ffb6d5"/>
      <stop offset="100%" stop-color="#d6a6ff"/>
    </linearGradient>
    <radialGradient id="glow" cx="28%" cy="22%" r="72%">
      <stop offset="0%" stop-color="#ffffff" stop-opacity=".56"/>
      <stop offset="58%" stop-color="#ffffff" stop-opacity=".08"/>
      <stop offset="100%" stop-color="#000000" stop-opacity=".18"/>
    </radialGradient>
  </defs>
  <rect width="512" height="512" rx="148" fill="url(#bg)"/>
  <rect width="512" height="512" rx="148" fill="url(#glow)"/>
  <circle cx="256" cy="212" r="104" fill="#321d35" opacity=".96"/>
  <path d="M138 264c16-116 67-167 128-156 63 11 96 75 88 158-31-47-69-61-107-59-43 2-77 23-109 57z" fill="#321d35"/>
  <circle cx="256" cy="238" r="78" fill="#ffd0b6"/>
  <path d="M174 430c17-78 53-120 82-120s65 42 82 120H174z" fill="#fff2fa" opacity=".96"/>
  <circle cx="228" cy="242" r="8" fill="#1f2937" opacity=".78"/>
  <circle cx="285" cy="242" r="8" fill="#1f2937" opacity=".78"/>
  <path d="M232 276c17 18 40 18 58 0" fill="none" stroke="#8b4a4a" stroke-width="8" stroke-linecap="round" opacity=".56"/>
</svg>